<svg height='200' width='200'  fill="#000000" xmlns="http://www.w3.org/2000/svg" xmlns:xlink="http://www.w3.org/1999/xlink" version="1.1" x="0px" y="0px" viewBox="0 0 512 512" enable-background="new 0 0 512 512" xml:space="preserve"><g><path d="M235.453,362.656c-17.672,0-32,14.344-32,32c0,17.688,14.328,32,32,32s32-14.312,32-32   C267.453,377,253.125,362.656,235.453,362.656z M235.453,405.344c-5.891,0-10.672-4.797-10.672-10.688   c0-5.875,4.781-10.656,10.672-10.656c5.875,0,10.656,4.781,10.656,10.656C246.109,400.547,241.328,405.344,235.453,405.344z"></path><path d="M278.109,42.664h-85.328v287.992h85.328V42.664z M256.781,309.344h-42.672V64h42.672V309.344z"></path><path d="M479.219,499.594L437.594,0L309.547,10.664H182.109h-21.328h-128V512h128h21.328h128V268.5L330.406,512L479.219,499.594z    M54.109,490.656V32h106.672v458.656H54.109z M288.781,490.656H182.109V32h106.672V490.656z M418.109,23.031l38.078,457.094   l-106.297,8.844L311.812,31.883L418.109,23.031z"></path><path d="M395.109,356.875c-0.891,0-1.797,0.031-2.703,0.109c-17.609,1.469-30.688,16.922-29.234,34.547   c1.391,16.719,15.391,29.344,31.859,29.344c0.891,0,1.797-0.031,2.688-0.109c17.625-1.469,30.703-16.938,29.234-34.547   C425.562,369.5,411.578,356.875,395.109,356.875z M403.219,395.766c-1.078,1.266-3.438,3.422-7.266,3.734   c-0.312,0.031-0.625,0.031-0.922,0.031c-5.484,0-10.141-4.281-10.594-9.781c-0.484-5.844,3.891-11.016,9.75-11.5   c0.297-0.031,0.609-0.047,0.922-0.047l0,0l0,0c5.484,0,10.125,4.297,10.594,9.797C406.016,391.812,404.281,394.5,403.219,395.766z"></path><path d="M408.375,34.547l-85.047,7.086l23.906,286.992l85.047-7.062L408.375,34.547z M346.359,61.117l42.516-3.539l20.375,244.484   l-42.531,3.531L346.359,61.117z"></path><path d="M107.453,362.656c-17.672,0-32,14.344-32,32c0,17.688,14.328,32,32,32s32-14.312,32-32   C139.453,377,125.125,362.656,107.453,362.656z M107.453,405.344c-5.891,0-10.672-4.797-10.672-10.688   c0-5.875,4.781-10.656,10.672-10.656c5.875,0,10.656,4.781,10.656,10.656C118.109,400.547,113.328,405.344,107.453,405.344z"></path><path d="M64.781,330.656h85.328V42.664H64.781V330.656z M86.109,64h42.672v245.344H86.109V64z"></path></g></svg>